<svg xmlns="http://www.w3.org/2000/svg" version="1.1" xmlns:xlink="http://www.w3.org/1999/xlink" xmlns:svgjs="http://svgjs.dev/svgjs" width="1500" height="431" viewBox="0 0 1500 431"><g transform="matrix(1,0,0,1,-0.9090909090909918,0.4710518385226976)"><svg viewBox="0 0 396 114" data-background-color="#ffffff" preserveAspectRatio="xMidYMid meet" height="431" width="1500" xmlns="http://www.w3.org/2000/svg" xmlns:xlink="http://www.w3.org/1999/xlink"><g id="tight-bounds" transform="matrix(1,0,0,1,0.2400000000000091,-0.12459375775310377)"><svg viewBox="0 0 395.52 114.24918751550622" height="114.24918751550622" width="395.52"><g><svg viewBox="0 0 666.3005376944594 192.46636092419325" height="114.24918751550622" width="395.52"><g><rect width="12.559200472813474" height="139.96287462287566" x="225.34384907291962" y="26.251743150658797" fill="#7f8cd9" opacity="1" stroke-width="0" stroke="transparent" fill-opacity="1" class="rect-qz-0" data-fill-palette-color="primary" rx="1%" id="qz-0" data-palette-color="#7f8cd9"></rect></g><g transform="matrix(1,0,0,1,270.78053769445944,26.599909505442056)"><svg viewBox="0 0 395.52 139.26654191330914" height="139.26654191330914" width="395.52"><g id="textblocktransform"><svg viewBox="0 0 395.52 139.26654191330914" height="139.26654191330914" width="395.52" id="textblock"><g><svg viewBox="0 0 395.52 139.26654191330914" height="139.26654191330914" width="395.52"><g transform="matrix(1,0,0,1,0,0)"><svg width="395.52" viewBox="3 -35.01 124.84 45.019999999999996" height="139.26654191330914" data-palette-color="#7f8cd9"><g class="wordmark-text-0" data-fill-palette-color="primary" id="text-0"><path d="M20.19-6.35L20.19-6.35Q20.19-4.83 19.58-3.58 18.97-2.32 17.92-1.42 16.87-0.51 15.49-0.01 14.11 0.49 12.6 0.49L12.6 0.49 10.6 0.49Q9.08 0.49 7.7-0.09 6.32-0.66 5.29-1.66 4.25-2.66 3.63-4 3-5.35 3-6.86L3-6.86 3-7.86 6.01-8.35 6.01-6.69Q6.01-5.79 6.38-4.99 6.76-4.2 7.4-3.61 8.03-3.03 8.86-2.69 9.69-2.34 10.6-2.34L10.6-2.34 12.6-2.34Q13.5-2.34 14.33-2.61 15.16-2.88 15.81-3.38 16.46-3.88 16.83-4.59 17.21-5.3 17.21-6.2L17.21-6.2Q17.21-7.54 16.63-8.4 16.04-9.25 15.08-9.83 14.11-10.4 12.88-10.78 11.65-11.16 10.35-11.54 9.06-11.91 7.82-12.4 6.59-12.89 5.63-13.68 4.66-14.48 4.08-15.67 3.49-16.87 3.49-18.65L3.49-18.65Q3.49-20.17 4.08-21.42 4.66-22.68 5.66-23.58 6.67-24.49 8-24.99 9.33-25.49 10.84-25.49L10.84-25.49 12.6-25.49Q14.11-25.49 15.45-24.91 16.8-24.34 17.8-23.34 18.8-22.34 19.37-21 19.95-19.65 19.95-18.14L19.95-18.14 19.95-18.04 16.94-17.55 16.94-18.31Q16.94-19.21 16.6-20.01 16.26-20.8 15.67-21.39 15.09-21.97 14.29-22.31 13.5-22.66 12.6-22.66L12.6-22.66 10.84-22.66Q9.94-22.66 9.14-22.39 8.35-22.12 7.76-21.62 7.18-21.12 6.84-20.41 6.49-19.7 6.49-18.8L6.49-18.8Q6.49-17.5 7.08-16.69 7.67-15.87 8.63-15.31 9.59-14.75 10.83-14.37 12.06-13.99 13.34-13.59 14.62-13.18 15.86-12.67 17.09-12.16 18.05-11.35 19.02-10.55 19.6-9.34 20.19-8.13 20.19-6.35ZM42.65 0L39.65 0 39.65-18.31Q39.65-19.21 39.3-20.01 38.96-20.8 38.38-21.39 37.79-21.97 37-22.31 36.2-22.66 35.3-22.66L35.3-22.66 33.3-22.66Q32.39-22.66 31.6-22.31 30.81-21.97 30.22-21.39 29.64-20.8 29.29-20.01 28.95-19.21 28.95-18.31L28.95-18.31 28.95 0 25.95 0 25.95-35.01 28.95-35.01 28.95-22.9Q29.98-24.12 31.42-24.8 32.86-25.49 34.54-25.49L34.54-25.49 35.3-25.49Q36.81-25.49 38.16-24.91 39.5-24.34 40.5-23.34 41.5-22.34 42.08-21 42.65-19.65 42.65-18.14L42.65-18.14 42.65 0ZM65.35-6.86L65.35-6.86Q65.35-5.35 64.78-4 64.2-2.66 63.2-1.66 62.2-0.66 60.86-0.09 59.52 0.49 58 0.49L58 0.49 56 0.49Q54.49 0.49 53.14-0.09 51.8-0.66 50.8-1.66 49.8-2.66 49.23-4 48.65-5.35 48.65-6.86L48.65-6.86 48.65-18.14Q48.65-19.65 49.23-21 49.8-22.34 50.8-23.34 51.8-24.34 53.14-24.91 54.49-25.49 56-25.49L56-25.49 58-25.49Q59.52-25.49 60.86-24.91 62.2-24.34 63.2-23.34 64.2-22.34 64.78-21 65.35-19.65 65.35-18.14L65.35-18.14 65.35-6.86ZM62.35-6.69L62.35-18.31Q62.35-19.21 62.01-20.01 61.66-20.8 61.08-21.39 60.49-21.97 59.7-22.31 58.91-22.66 58-22.66L58-22.66 56-22.66Q55.1-22.66 54.3-22.31 53.51-21.97 52.92-21.39 52.34-20.8 52-20.01 51.66-19.21 51.66-18.31L51.66-18.31 51.66-6.69Q51.66-5.79 52-4.99 52.34-4.2 52.92-3.61 53.51-3.03 54.3-2.69 55.1-2.34 56-2.34L56-2.34 58-2.34Q58.91-2.34 59.7-2.69 60.49-3.03 61.08-3.61 61.66-4.2 62.01-4.99 62.35-5.79 62.35-6.69L62.35-6.69ZM88.05-6.86L88.05-6.86Q88.05-5.35 87.48-4 86.91-2.66 85.91-1.66 84.9-0.66 83.56-0.09 82.22 0.49 80.71 0.49L80.71 0.49 79.95 0.49Q78.26 0.49 76.82-0.2 75.38-0.88 74.36-2.1L74.36-2.1 74.36 10.01 71.35 10.01 71.35-25 72.36-25 73.99-22.46Q75.02-23.85 76.57-24.67 78.12-25.49 79.95-25.49L79.95-25.49 80.71-25.49Q82.22-25.49 83.56-24.91 84.9-24.34 85.91-23.34 86.91-22.34 87.48-21 88.05-19.65 88.05-18.14L88.05-18.14 88.05-6.86ZM85.05-6.69L85.05-18.31Q85.05-19.21 84.71-20.01 84.37-20.8 83.78-21.39 83.2-21.97 82.4-22.31 81.61-22.66 80.71-22.66L80.71-22.66 78.7-22.66Q77.8-22.66 77.01-22.31 76.21-21.97 75.63-21.39 75.04-20.8 74.7-20.01 74.36-19.21 74.36-18.31L74.36-18.31 74.36-6.69Q74.36-5.79 74.7-4.99 75.04-4.2 75.63-3.61 76.21-3.03 77.01-2.69 77.8-2.34 78.7-2.34L78.7-2.34 80.71-2.34Q81.61-2.34 82.4-2.69 83.2-3.03 83.78-3.61 84.37-4.2 84.71-4.99 85.05-5.79 85.05-6.69L85.05-6.69Z" fill="#7f8cd9" data-fill-palette-color="primary"></path><path d="M119.59 0L103.04 0 103.04-35.01 106.19-35.01 106.19-3 119.59-3 119.59 0ZM127.84-31.01L124.35-31.01 124.35-35.01 127.84-35.01 127.84-31.01ZM127.6 0L124.59 0 124.59-25 127.6-25 127.6 0Z" fill="#dae5f4" data-fill-palette-color="accent"></path></g></svg></g></svg></g></svg></g></svg></g><g><svg viewBox="0 0 192.46636092419325 192.46636092419325" height="192.46636092419325" width="192.46636092419325"><g><svg xmlns="http://www.w3.org/2000/svg" xmlns:xlink="http://www.w3.org/1999/xlink" version="1.1" x="0" y="0" viewBox="5 5 90 90" style="enable-background:new 0 0 100 100;" xml:space="preserve" height="192.46636092419325" width="192.46636092419325" class="icon-icon-0" data-fill-palette-color="accent" id="icon-0"><g fill="#dae5f4" data-fill-palette-color="accent"><path d="M84 5H16C9.9 5 5 9.6 5 15.3V67c0 5.7 4.9 10.3 11 10.3h7.2v15.3c0 0.9 0.6 1.8 1.5 2.2 0.4 0.2 0.7 0.2 1.1 0.2 0.6 0 1.2-0.2 1.7-0.5l22.7-17.2H84c6.1 0 11-4.6 11-10.3V15.3C95 9.6 90.1 5 84 5zM89.9 66.9c0 3-2.6 5.4-5.8 5.4H49.2c-0.6 0-1.2 0.2-1.7 0.5L28.4 87.3V74.7c0-1.3-1.2-2.4-2.6-2.4h-9.8c-3.2 0-5.8-2.4-5.8-5.4V15.5c0-3 2.6-5.4 5.8-5.4h68.2c3.2 0 5.8 2.4 5.8 5.4V66.9z" fill="#dae5f4" data-fill-palette-color="accent"></path><polygon points="41.1,26.3 35,26.3 35,55.5 55.7,55.5 55.7,50.2 41.1,50.2  " fill="#dae5f4" data-fill-palette-color="accent"></polygon><rect x="59.3" y="26.3" width="6.1" height="29.2" fill="#dae5f4" data-fill-palette-color="accent"></rect></g></svg></g></svg></g></svg></g><defs></defs></svg><rect width="395.52" height="114.24918751550622" fill="none" stroke="none" visibility="hidden"></rect></g></svg></g></svg>